<?xml version="1.0" encoding="utf-8" standalone="no"?>
<!DOCTYPE svg PUBLIC "-//W3C//DTD SVG 1.0//EN" "http://www.w3.org/TR/SVG/DTD/svg11.dtd" >
<svg version="1.1" baseProfile="full"  width="2326.7715" height="2326.7715" viewBox="0 0 1675.2755 1675.2755" preserveAspectRatio="xMidYMid" xmlns="http://www.w3.org/2000/svg" >

<g lengthAdjust="spacingAndGlyphs" xml:space='preserve' >
<g  transform="translate(8.50,8.50)" >
<path d="
M0.0 0.0
L0.0 1658.26
L1658.26 1658.26
L1658.26 0.0
Z
" fill="rgb(224,187,108)" fill-rule="nonzero" />
<line x1="63.77" y1="63.77" x2="63.77" y2="1594.48" fill="none" stroke="black" stroke-width="5.66px" stroke-linecap="square" />
<line x1="148.81" y1="63.77" x2="148.81" y2="1594.48" fill="none" stroke="black" stroke-width="1.98px" stroke-linecap="butt" />
<line x1="233.85" y1="63.77" x2="233.85" y2="1594.48" fill="none" stroke="black" stroke-width="1.98px" stroke-linecap="butt" />
<line x1="318.89" y1="63.77" x2="318.89" y2="1594.48" fill="none" stroke="black" stroke-width="1.98px" stroke-linecap="butt" />
<line x1="403.93" y1="63.77" x2="403.93" y2="1594.48" fill="none" stroke="black" stroke-width="1.98px" stroke-linecap="butt" />
<line x1="488.97" y1="63.77" x2="488.97" y2="1594.48" fill="none" stroke="black" stroke-width="1.98px" stroke-linecap="butt" />
<line x1="574.01" y1="63.77" x2="574.01" y2="1594.48" fill="none" stroke="black" stroke-width="1.98px" stroke-linecap="butt" />
<line x1="659.05" y1="63.77" x2="659.05" y2="1594.48" fill="none" stroke="black" stroke-width="1.98px" stroke-linecap="butt" />
<line x1="744.09" y1="63.77" x2="744.09" y2="1594.48" fill="none" stroke="black" stroke-width="1.98px" stroke-linecap="butt" />
<line x1="829.13" y1="63.77" x2="829.13" y2="1594.48" fill="none" stroke="black" stroke-width="1.98px" stroke-linecap="butt" />
<line x1="914.17" y1="63.77" x2="914.17" y2="1594.48" fill="none" stroke="black" stroke-width="1.98px" stroke-linecap="butt" />
<line x1="999.21" y1="63.77" x2="999.21" y2="1594.48" fill="none" stroke="black" stroke-width="1.98px" stroke-linecap="butt" />
<line x1="1084.25" y1="63.77" x2="1084.25" y2="1594.48" fill="none" stroke="black" stroke-width="1.98px" stroke-linecap="butt" />
<line x1="1169.29" y1="63.77" x2="1169.29" y2="1594.48" fill="none" stroke="black" stroke-width="1.98px" stroke-linecap="butt" />
<line x1="1254.33" y1="63.77" x2="1254.33" y2="1594.48" fill="none" stroke="black" stroke-width="1.98px" stroke-linecap="butt" />
<line x1="1339.36" y1="63.77" x2="1339.36" y2="1594.48" fill="none" stroke="black" stroke-width="1.98px" stroke-linecap="butt" />
<line x1="1424.40" y1="63.77" x2="1424.40" y2="1594.48" fill="none" stroke="black" stroke-width="1.98px" stroke-linecap="butt" />
<line x1="1509.44" y1="63.77" x2="1509.44" y2="1594.48" fill="none" stroke="black" stroke-width="1.98px" stroke-linecap="butt" />
<line x1="1594.48" y1="63.77" x2="1594.48" y2="1594.48" fill="none" stroke="black" stroke-width="5.66px" stroke-linecap="square" />
<line x1="63.77" y1="63.77" x2="1594.48" y2="63.77" fill="none" stroke="black" stroke-width="5.66px" stroke-linecap="square" />
<line x1="63.77" y1="148.81" x2="1594.48" y2="148.81" fill="none" stroke="black" stroke-width="1.98px" stroke-linecap="butt" />
<line x1="63.77" y1="233.85" x2="1594.48" y2="233.85" fill="none" stroke="black" stroke-width="1.98px" stroke-linecap="butt" />
<line x1="63.77" y1="318.89" x2="1594.48" y2="318.89" fill="none" stroke="black" stroke-width="1.98px" stroke-linecap="butt" />
<line x1="63.77" y1="403.93" x2="1594.48" y2="403.93" fill="none" stroke="black" stroke-width="1.98px" stroke-linecap="butt" />
<line x1="63.77" y1="488.97" x2="1594.48" y2="488.97" fill="none" stroke="black" stroke-width="1.98px" stroke-linecap="butt" />
<line x1="63.77" y1="574.01" x2="1594.48" y2="574.01" fill="none" stroke="black" stroke-width="1.98px" stroke-linecap="butt" />
<line x1="63.77" y1="659.05" x2="1594.48" y2="659.05" fill="none" stroke="black" stroke-width="1.98px" stroke-linecap="butt" />
<line x1="63.77" y1="744.09" x2="1594.48" y2="744.09" fill="none" stroke="black" stroke-width="1.98px" stroke-linecap="butt" />
<line x1="63.77" y1="829.13" x2="1594.48" y2="829.13" fill="none" stroke="black" stroke-width="1.98px" stroke-linecap="butt" />
<line x1="63.77" y1="914.17" x2="1594.48" y2="914.17" fill="none" stroke="black" stroke-width="1.98px" stroke-linecap="butt" />
<line x1="63.77" y1="999.21" x2="1594.48" y2="999.21" fill="none" stroke="black" stroke-width="1.98px" stroke-linecap="butt" />
<line x1="63.77" y1="1084.25" x2="1594.48" y2="1084.25" fill="none" stroke="black" stroke-width="1.98px" stroke-linecap="butt" />
<line x1="63.77" y1="1169.29" x2="1594.48" y2="1169.29" fill="none" stroke="black" stroke-width="1.98px" stroke-linecap="butt" />
<line x1="63.77" y1="1254.33" x2="1594.48" y2="1254.33" fill="none" stroke="black" stroke-width="1.98px" stroke-linecap="butt" />
<line x1="63.77" y1="1339.36" x2="1594.48" y2="1339.36" fill="none" stroke="black" stroke-width="1.98px" stroke-linecap="butt" />
<line x1="63.77" y1="1424.40" x2="1594.48" y2="1424.40" fill="none" stroke="black" stroke-width="1.98px" stroke-linecap="butt" />
<line x1="63.77" y1="1509.44" x2="1594.48" y2="1509.44" fill="none" stroke="black" stroke-width="1.98px" stroke-linecap="butt" />
<line x1="63.77" y1="1594.48" x2="1594.48" y2="1594.48" fill="none" stroke="black" stroke-width="5.66px" stroke-linecap="square" />
<circle cx="318.89" cy="318.89" r="5.66" fill="black"/>
<circle cx="318.89" cy="829.13" r="5.66" fill="black"/>
<circle cx="318.89" cy="1339.36" r="5.66" fill="black"/>
<circle cx="829.13" cy="318.89" r="5.66" fill="black"/>
<circle cx="829.13" cy="829.13" r="5.66" fill="black"/>
<circle cx="829.13" cy="1339.36" r="5.66" fill="black"/>
<circle cx="1339.36" cy="318.89" r="5.66" fill="black"/>
<circle cx="1339.36" cy="829.13" r="5.66" fill="black"/>
<circle cx="1339.36" cy="1339.36" r="5.66" fill="black"/>
</g>
</g>
</svg>
